<svg width="34" height="32" viewBox="0 0 34 32" fill="none" xmlns="http://www.w3.org/2000/svg">
<path fill-rule="evenodd" clip-rule="evenodd" d="M9.92156 7.32866C10.0263 7.43316 10.1094 7.55731 10.1662 7.69399C10.2229 7.83066 10.2521 7.97718 10.2521 8.12516C10.2521 8.27314 10.2229 8.41966 10.1662 8.55634C10.1094 8.69301 10.0263 8.81716 9.92156 8.92166L2.84081 16.0002L9.92156 23.0787C10.1328 23.2899 10.2515 23.5764 10.2515 23.8752C10.2515 24.1739 10.1328 24.4604 9.92156 24.6717C9.71031 24.8829 9.4238 25.0016 9.12506 25.0016C8.82631 25.0016 8.5398 24.8829 8.32856 24.6717L0.453558 16.7967C0.348791 16.6922 0.265669 16.568 0.208955 16.4313C0.15224 16.2947 0.123047 16.1481 0.123047 16.0002C0.123047 15.8522 0.15224 15.7057 0.208955 15.569C0.265669 15.4323 0.348791 15.3082 0.453558 15.2037L8.32856 7.32866C8.43306 7.22389 8.55721 7.14077 8.69388 7.08406C8.83056 7.02734 8.97708 6.99815 9.12506 6.99815C9.27303 6.99815 9.41956 7.02734 9.55623 7.08406C9.69291 7.14077 9.81705 7.22389 9.92156 7.32866ZM24.0786 7.32866C23.9738 7.43316 23.8907 7.55731 23.834 7.69399C23.7772 7.83066 23.748 7.97718 23.748 8.12516C23.748 8.27314 23.7772 8.41966 23.834 8.55634C23.8907 8.69301 23.9738 8.81716 24.0786 8.92166L31.1593 16.0002L24.0786 23.0787C23.974 23.1833 23.891 23.3074 23.8344 23.4441C23.7778 23.5808 23.7486 23.7272 23.7486 23.8752C23.7486 24.0231 23.7778 24.1696 23.8344 24.3062C23.891 24.4429 23.974 24.5671 24.0786 24.6717C24.1832 24.7763 24.3073 24.8592 24.444 24.9158C24.5807 24.9724 24.7271 25.0016 24.8751 25.0016C25.023 25.0016 25.1695 24.9724 25.3061 24.9158C25.4428 24.8592 25.567 24.7763 25.6716 24.6717L33.5466 16.7967C33.6513 16.6922 33.7344 16.568 33.7912 16.4313C33.8479 16.2947 33.8771 16.1481 33.8771 16.0002C33.8771 15.8522 33.8479 15.7057 33.7912 15.569C33.7344 15.4323 33.6513 15.3082 33.5466 15.2037L25.6716 7.32866C25.5671 7.22389 25.4429 7.14077 25.3062 7.08406C25.1696 7.02734 25.023 6.99815 24.8751 6.99815C24.7271 6.99815 24.5806 7.02734 24.4439 7.08406C24.3072 7.14077 24.1831 7.22389 24.0786 7.32866ZM21.8308 0.299661C22.1157 0.387803 22.3539 0.585428 22.4931 0.849113C22.6323 1.1128 22.6612 1.42097 22.5733 1.70591L13.5733 30.9559C13.4769 31.2302 13.2781 31.4565 13.0185 31.5875C12.759 31.7184 12.4588 31.7437 12.1809 31.6582C11.9031 31.5726 11.6691 31.3829 11.5281 31.1286C11.3871 30.8744 11.35 30.5754 11.4246 30.2944L20.4246 1.04441C20.5127 0.759553 20.7103 0.521339 20.974 0.382113C21.2377 0.242888 21.5459 0.214041 21.8308 0.301911V0.299661Z" fill="#AD00BD"/>
</svg>
